REM DIRINDEX 1\2,1\3
REM DIRNAME folder01,folder02,folder03
TITLE ""
FILE "Disc1Track15.mp3" MP3
  TRACK 01 AUDIO
    TITLE "0:"
    INDEX 01 00:00:00
  TRACK 02 AUDIO
    TITLE "3:cjc116_1544"
    INDEX 01 00:00:09
  TRACK 03 AUDIO
    TITLE "0:"
    INDEX 01 00:10:35
  TRACK 04 AUDIO
    TITLE "3:cjc116_1545"
    INDEX 01 00:11:19
  TRACK 05 AUDIO
    TITLE "0:"
    INDEX 01 00:12:71
  TRACK 06 AUDIO
    TITLE "2:cjc116_1546"
    INDEX 01 00:13:45
  TRACK 07 AUDIO
    TITLE "0:"
    INDEX 01 00:14:51
  TRACK 08 AUDIO
    TITLE "2:cjc116_1547"
    INDEX 01 00:14:72
  TRACK 09 AUDIO
    TITLE "0:"
    INDEX 01 00:18:17
  TRACK 10 AUDIO
    TITLE "2:cjc116_1548"
    INDEX 01 00:18:72
  TRACK 11 AUDIO
    TITLE "0:"
    INDEX 01 00:20:02
  TRACK 12 AUDIO
    TITLE "2:cjc116_1549"
    INDEX 01 00:20:22
  TRACK 13 AUDIO
    TITLE "0:"
    INDEX 01 00:24:24
  TRACK 14 AUDIO
    TITLE "2:cjc116_1550"
    INDEX 01 00:24:63
  TRACK 15 AUDIO
    TITLE "0:"
    INDEX 01 00:25:74
  TRACK 16 AUDIO
    TITLE "2:cjc116_1551"
    INDEX 01 00:26:17
  TRACK 17 AUDIO
    TITLE "0:"
    INDEX 01 00:30:54
  TRACK 18 AUDIO
    TITLE "2:cjc116_1552"
    INDEX 01 00:31:22
  TRACK 19 AUDIO
    TITLE "0:"
    INDEX 01 00:32:15
  TRACK 20 AUDIO
    TITLE "2:cjc116_1553"
    INDEX 01 00:32:31
  TRACK 21 AUDIO
    TITLE "0:"
    INDEX 01 00:36:48
  TRACK 22 AUDIO
    TITLE "2:cjc116_1554"
    INDEX 01 00:37:16
  TRACK 23 AUDIO
    TITLE "0:"
    INDEX 01 00:38:16
  TRACK 24 AUDIO
    TITLE "2:cjc116_1555"
    INDEX 01 00:38:35
  TRACK 25 AUDIO
    TITLE "0:"
    INDEX 01 00:42:55
  TRACK 26 AUDIO
    TITLE "2:cjc116_1556"
    INDEX 01 00:43:13
  TRACK 27 AUDIO
    TITLE "0:"
    INDEX 01 00:44:03
  TRACK 28 AUDIO
    TITLE "2:cjc116_1557"
    INDEX 01 00:44:14
  TRACK 29 AUDIO
    TITLE "0:"
    INDEX 01 00:48:02
  TRACK 30 AUDIO
    TITLE "2:cjc116_1558"
    INDEX 01 00:48:34
  TRACK 31 AUDIO
    TITLE "0:"
    INDEX 01 00:49:21
  TRACK 32 AUDIO
    TITLE "2:cjc116_1559"
    INDEX 01 00:49:43
  TRACK 33 AUDIO
    TITLE "0:"
    INDEX 01 00:53:06
  TRACK 34 AUDIO
    TITLE "2:cjc116_1560"
    INDEX 01 00:53:60
  TRACK 35 AUDIO
    TITLE "0:"
    INDEX 01 00:54:66
  TRACK 36 AUDIO
    TITLE "2:cjc116_1561"
    INDEX 01 00:54:74
  TRACK 37 AUDIO
    TITLE "0:"
    INDEX 01 00:59:12
  TRACK 38 AUDIO
    TITLE "2:cjc116_1562"
    INDEX 01 00:59:49
  TRACK 39 AUDIO
    TITLE "0:"
    INDEX 01 01:00:53
  TRACK 40 AUDIO
    TITLE "2:cjc116_1563"
    INDEX 01 01:00:64
  TRACK 41 AUDIO
    TITLE "0:"
    INDEX 01 01:04:74
  TRACK 42 AUDIO
    TITLE "2:cjc116_1564"
    INDEX 01 01:05:38
  TRACK 43 AUDIO
    TITLE "0:"
    INDEX 01 01:06:59
  TRACK 44 AUDIO
    TITLE "2:cjc116_1565"
    INDEX 01 01:07:04
  TRACK 45 AUDIO
    TITLE "0:"
    INDEX 01 01:11:23
  TRACK 46 AUDIO
    TITLE "2:cjc116_1566"
    INDEX 01 01:11:62
  TRACK 47 AUDIO
    TITLE "0:"
    INDEX 01 01:13:00
  TRACK 48 AUDIO
    TITLE "2:cjc116_1567"
    INDEX 01 01:13:18
  TRACK 49 AUDIO
    TITLE "0:"
    INDEX 01 01:18:60
  TRACK 50 AUDIO
    TITLE "2:cjc116_1568"
    INDEX 01 01:19:25
  TRACK 51 AUDIO
    TITLE "0:"
    INDEX 01 01:20:51
  TRACK 52 AUDIO
    TITLE "2:cjc116_1569"
    INDEX 01 01:20:65
  TRACK 53 AUDIO
    TITLE "0:"
    INDEX 01 01:25:02
  TRACK 54 AUDIO
    TITLE "2:cjc116_1570"
    INDEX 01 01:25:43
  TRACK 55 AUDIO
    TITLE "0:"
    INDEX 01 01:26:54
  TRACK 56 AUDIO
    TITLE "2:cjc116_1571"
    INDEX 01 01:26:72
  TRACK 57 AUDIO
    TITLE "0:"
    INDEX 01 01:31:00
  TRACK 58 AUDIO
    TITLE "2:cjc116_1572"
    INDEX 01 01:31:41
  TRACK 59 AUDIO
    TITLE "0:"
    INDEX 01 01:32:49
  TRACK 60 AUDIO
    TITLE "2:cjc116_1573"
    INDEX 01 01:32:70
  TRACK 61 AUDIO
    TITLE "0:"
    INDEX 01 01:37:56
  TRACK 62 AUDIO
    TITLE "2:cjc116_1574"
    INDEX 01 01:38:28
  TRACK 63 AUDIO
    TITLE "0:"
    INDEX 01 01:39:31
  TRACK 64 AUDIO
    TITLE "2:cjc116_1575"
    INDEX 01 01:39:43
  TRACK 65 AUDIO
    TITLE "0:"
    INDEX 01 01:44:01
  TRACK 66 AUDIO
    TITLE "2:cjc116_1576"
    INDEX 01 01:44:52
  TRACK 67 AUDIO
    TITLE "0:"
    INDEX 01 01:45:57
  TRACK 68 AUDIO
    TITLE "2:cjc116_1577"
    INDEX 01 01:45:69
  TRACK 69 AUDIO
    TITLE "0:"
    INDEX 01 01:49:67
  TRACK 70 AUDIO
    TITLE "2:cjc116_1578"
    INDEX 01 01:50:31
  TRACK 71 AUDIO
    TITLE "0:"
    INDEX 01 01:51:32
  TRACK 72 AUDIO
    TITLE "2:cjc116_1579"
    INDEX 01 01:51:50
  TRACK 73 AUDIO
    TITLE "0:"
    INDEX 01 01:55:46
  TRACK 74 AUDIO
    TITLE "2:cjc116_1580"
    INDEX 01 01:56:28
  TRACK 75 AUDIO
    TITLE "0:"
    INDEX 01 01:57:11
  TRACK 76 AUDIO
    TITLE "2:cjc116_1581"
    INDEX 01 01:57:27
  TRACK 77 AUDIO
    TITLE "0:"
    INDEX 01 02:02:18
  TRACK 78 AUDIO
    TITLE "2:cjc116_1582"
    INDEX 01 02:02:66
  TRACK 79 AUDIO
    TITLE "0:"
    INDEX 01 02:03:55
  TRACK 80 AUDIO
    TITLE "2:cjc116_1583"
    INDEX 01 02:03:71
  TRACK 81 AUDIO
    TITLE "0:"
    INDEX 01 02:08:09
  TRACK 82 AUDIO
    TITLE "2:cjc116_1584"
    INDEX 01 02:08:45
  TRACK 83 AUDIO
    TITLE "0:"
    INDEX 01 02:09:50
  TRACK 84 AUDIO
    TITLE "2:cjc116_1585"
    INDEX 01 02:09:66
  TRACK 85 AUDIO
    TITLE "0:"
    INDEX 01 02:14:39
  TRACK 86 AUDIO
    TITLE "2:cjc116_1586"
    INDEX 01 02:15:05
  TRACK 87 AUDIO
    TITLE "0:"
    INDEX 01 02:16:11
  TRACK 88 AUDIO
    TITLE "2:cjc116_1587"
    INDEX 01 02:16:24
  TRACK 89 AUDIO
    TITLE "0:"
    INDEX 01 02:23:01
  TRACK 90 AUDIO
    TITLE "2:cjc116_1588"
    INDEX 01 02:23:44
  TRACK 91 AUDIO
    TITLE "0:"
    INDEX 01 02:24:53
  TRACK 92 AUDIO
    TITLE "2:cjc116_1589"
    INDEX 01 02:24:65
  TRACK 93 AUDIO
    TITLE "0:"
    INDEX 01 02:29:23
  TRACK 94 AUDIO
    TITLE "2:cjc116_1590"
    INDEX 01 02:29:64
  TRACK 95 AUDIO
    TITLE "0:"
    INDEX 01 02:30:68
  TRACK 96 AUDIO
    TITLE "2:cjc116_1591"
    INDEX 01 02:31:06
  TRACK 97 AUDIO
    TITLE "0:"
    INDEX 01 02:34:44
  TRACK 98 AUDIO
    TITLE "2:cjc116_1592"
    INDEX 01 02:35:08
  TRACK 99 AUDIO
    TITLE "0:"
    INDEX 01 02:36:10
  TRACK 100 AUDIO
    TITLE "2:cjc116_1593"
    INDEX 01 02:36:31
  TRACK 101 AUDIO
    TITLE "0:"
    INDEX 01 02:40:64
  TRACK 102 AUDIO
    TITLE "2:cjc116_1594"
    INDEX 01 02:41:32
  TRACK 103 AUDIO
    TITLE "0:"
    INDEX 01 02:42:28
  TRACK 104 AUDIO
    TITLE "2:cjc116_1595"
    INDEX 01 02:42:42
  TRACK 105 AUDIO
    TITLE "0:"
    INDEX 01 02:47:33
  TRACK 106 AUDIO
    TITLE "2:cjc116_1596"
    INDEX 01 02:48:15
  TRACK 107 AUDIO
    TITLE "0:"
    INDEX 01 02:49:20
  TRACK 108 AUDIO
    TITLE "2:cjc116_1597"
    INDEX 01 02:49:30
  TRACK 109 AUDIO
    TITLE "0:"
    INDEX 01 02:54:19
  TRACK 110 AUDIO
    TITLE "2:cjc116_1598"
    INDEX 01 02:54:60
  TRACK 111 AUDIO
    TITLE "0:"
    INDEX 01 02:55:68
  TRACK 112 AUDIO
    TITLE "2:cjc116_1599"
    INDEX 01 02:56:06
  TRACK 113 AUDIO
    TITLE "0:"
    INDEX 01 03:01:33
  TRACK 114 AUDIO
    TITLE "2:cjc116_1600"
    INDEX 01 03:01:72
  TRACK 115 AUDIO
    TITLE "0:"
    INDEX 01 03:02:74
  TRACK 116 AUDIO
    TITLE "2:cjc116_1601"
    INDEX 01 03:03:14
  TRACK 117 AUDIO
    TITLE "0:"
    INDEX 01 03:07:47
  TRACK 118 AUDIO
    TITLE "2:cjc116_1602"
    INDEX 01 03:08:17
  TRACK 119 AUDIO
    TITLE "0:"
    INDEX 01 03:09:13
  TRACK 120 AUDIO
    TITLE "2:cjc116_1603"
    INDEX 01 03:09:40
  TRACK 121 AUDIO
    TITLE "0:"
    INDEX 01 03:13:11
  TRACK 122 AUDIO
    TITLE "2:cjc116_1604"
    INDEX 01 03:13:58
  TRACK 123 AUDIO
    TITLE "0:"
    INDEX 01 03:14:71
  TRACK 124 AUDIO
    TITLE "2:cjc116_1605"
    INDEX 01 03:15:15
  TRACK 125 AUDIO
    TITLE "0:"
    INDEX 01 03:20:13
  TRACK 126 AUDIO
    TITLE "2:cjc116_1606"
    INDEX 01 03:20:54
  TRACK 127 AUDIO
    TITLE "0:"
    INDEX 01 03:22:00
  TRACK 128 AUDIO
    TITLE "2:cjc116_1607"
    INDEX 01 03:22:16
  TRACK 129 AUDIO
    TITLE "0:"
    INDEX 01 03:26:47
  TRACK 130 AUDIO
    TITLE "2:cjc116_1608"
    INDEX 01 03:27:11
  TRACK 131 AUDIO
    TITLE "0:"
    INDEX 01 03:28:16
  TRACK 132 AUDIO
    TITLE "2:cjc116_1609"
    INDEX 01 03:28:36
  TRACK 133 AUDIO
    TITLE "0:"
    INDEX 01 03:32:43
